<?xml version="1.0" encoding="utf-8"?>
<!-- Generator: Adobe Illustrator 16.0.0, SVG Export Plug-In . SVG Version: 6.00 Build 0)  -->
<!DOCTYPE svg PUBLIC "-//W3C//DTD SVG 1.1//EN" "http://www.w3.org/Graphics/SVG/1.1/DTD/svg11.dtd">
<svg version="1.1" id="Layer_1" xmlns="http://www.w3.org/2000/svg" xmlns:xlink="http://www.w3.org/1999/xlink" x="0px" y="0px"
	 width="68.833px" height="28.065px" viewBox="0 0 68.833 28.065" enable-background="new 0 0 68.833 28.065" xml:space="preserve">
<g>
	<path fill="#FFFFFF" d="M12.027,4.01H8.018v24.056H4.009V4.01H0V0h12.027V4.01z"/>
	<path fill="#FFFFFF" d="M32.073,28.065h-4.009V12.027h-8.019v16.038h-4.009V0h4.009v8.02h8.019v4.008h4.009V28.065z"/>
	<path fill="#FFFFFF" d="M52.12,24.055h-4.009v4.011h-8.019v-4.011h-4.009V12.027h4.009V8.02h8.019v4.008h4.009V24.055z
		 M48.111,24.055V12.027h-8.019v12.027H48.111z"/>
	<path fill="#AFD14A" d="M68.157,28.065h-8.019v-4.011h-4.01V0h4.01v8.02h4.009v4.008h-4.009v12.027h8.019V28.065z"/>
</g>
</svg>
